<svg width="20" height="20" viewBox="0 0 20 20" fill="none" xmlns="http://www.w3.org/2000/svg">
    <path d="M15.9336 0.0135498H4.06645C1.79422 0.171909 0 2.06507 0 4.37757V6.67289H20V4.37757C20 2.06507 18.2058 0.171909 15.9336 0.0135498Z" fill="white"/>
    <path d="M0 15.6249C0 17.9374 1.79418 19.8306 4.06641 19.9889H15.9336C18.2058 19.8306 20 17.9374 20 15.6249V13.3296H0V15.6249Z" fill="#F9263E"/>
    <path d="M20 6.67041H0V13.3298H20V6.67041Z" fill="#1455B1"/>
    <path d="M6.40178 14.665C6.25881 14.5829 2.89795 12.6281 2.89795 9.62343V5.5166H10.1453V9.62343C10.1453 12.6281 6.78447 14.5829 6.6415 14.665L6.52166 14.7334L6.40178 14.665Z" fill="#F9263E"/>
    <path d="M8.4193 8.89868L7.28039 9.04868H6.90078V8.36903H7.12852L8.03965 8.51907L7.91625 7.98938L8.03965 7.45981L7.12852 7.60977H6.90078V7.3802L7.05079 6.24133L6.52117 6.39555L5.99153 6.24133L6.14153 7.3802V7.60977H5.91371L5.00266 7.45981L5.12602 7.98938L5.00266 8.51907L5.91371 8.36903H6.14153V9.04868H5.76192L4.62305 8.89868L4.77727 9.42832L4.62305 9.95793L5.76192 9.80793H6.14153V11.5561H6.90078V9.80793H7.28039L8.4193 9.95793L8.26508 9.42832L8.4193 8.89868Z" fill="#F5F5F5"/>
    <path d="M6.52158 10.8313C6.02256 10.8313 5.59451 11.134 5.41033 11.5658C5.37791 11.5631 5.34678 11.556 5.31365 11.556C4.67049 11.556 4.14971 12.0601 4.11279 12.694C5.09115 13.8983 6.3165 14.616 6.4017 14.6649L6.52154 14.7333L6.64138 14.6649C6.72654 14.616 7.95193 13.8983 8.93029 12.694C8.89341 12.0601 8.37259 11.556 7.72943 11.556C7.6963 11.556 7.66521 11.5631 7.63275 11.5658C7.44865 11.134 7.0206 10.8313 6.52158 10.8313Z" fill="#1455B1"/>
    <path d="M9.90363 5.75831C9.90363 5.75831 9.90363 8.65726 9.90363 9.62358C9.90363 12.5225 6.52152 14.4551 6.52152 14.4551C6.52152 14.4551 3.13941 12.5225 3.13941 9.62358C3.13941 8.65726 3.13941 5.75831 3.13941 5.75831H9.90363ZM10.3868 5.27515H9.90363H3.13941H2.65625V5.75831V9.62358C2.65625 12.7667 6.13379 14.7901 6.2818 14.8747L6.52152 15.0116L6.76125 14.8747C6.90926 14.79 10.3868 12.7667 10.3868 9.62358V5.75831V5.27515Z" fill="#F5F5F5"/>
</svg>
